<svg xmlns="http://www.w3.org/2000/svg" viewBox="0 0 64 64">
  <defs>
    <linearGradient id="gold" x1="14" x2="50" y1="10" y2="54" gradientUnits="userSpaceOnUse">
      <stop stop-color="#fff0b8" />
      <stop offset="0.5" stop-color="#f2bc5c" />
      <stop offset="1" stop-color="#a96d1b" />
    </linearGradient>
    <radialGradient id="glow" cx="50%" cy="42%" r="58%">
      <stop stop-color="#ffe5a4" stop-opacity="0.86" />
      <stop offset="1" stop-color="#f2bc5c" stop-opacity="0" />
    </radialGradient>
  </defs>
  <rect width="64" height="64" rx="14" fill="#06111f" />
  <circle cx="32" cy="30" r="24" fill="url(#glow)" />
  <path
    d="M14.5 19.8c8.7-3.7 15-2.1 17.5 2.5 2.5-4.6 8.8-6.2 17.5-2.5v27.8c-8.5-3.5-14.8-2.5-17.5 2.7-2.7-5.2-9-6.2-17.5-2.7V19.8Z"
    fill="#081827"
    stroke="url(#gold)"
    stroke-width="2.6"
    stroke-linejoin="round"
  />
  <path d="M32 22.5v27" stroke="#ffe09a" stroke-width="1.7" stroke-linecap="round" />
  <path
    d="M21 26.8c3.2-.8 5.8-.4 7.6 1.2M21 33c3.2-.8 5.8-.4 7.6 1.2M43 26.8c-3.2-.8-5.8-.4-7.6 1.2M43 33c-3.2-.8-5.8-.4-7.6 1.2"
    stroke="#ffd37b"
    stroke-opacity="0.66"
    stroke-width="1.5"
    stroke-linecap="round"
  />
  <path
    d="M24.5 14.8c3.5-4.1 11.5-4.1 15 0M20.2 11.5c-1.8 1.9-2 4.1-.5 6.4M43.8 11.5c1.8 1.9 2 4.1.5 6.4"
    fill="none"
    stroke="url(#gold)"
    stroke-width="2.1"
    stroke-linecap="round"
  />
  <circle cx="32" cy="13.6" r="2.4" fill="#ffe09a" />
</svg>
